PathFileType	4	(X/Y/Z)	0_coords_data.trc
DataRate	CameraRate	NumFrames	NumMarkers	Units	OrigDataRate	OrigDataStartFrame	OrigNumFrames
30.0	30.0	4	21	m	30.0	1	59
Frame#	Time	THUMB_TIP	THUMB_IP	THUMB_MCP	THUMB_CMC	INDEX_TIP	INDEX_DIP	INDEX_PIP	INDEX_MCP	MIDDLE_TIP	MIDDLE_DIP	MIDDLE_PIP	MIDDLE_MCP	RING_TIP	RING_DIP	RING_PIP	RING_MCP	PINKY_TIP	PINKY_DIP	PINKY_PIP	PINKY_MCP	WRIST
X1	Y1	Z1	X2	Y2	Z2	X3	Y3	Z3	X4	Y4	Z4	X5	Y5	Z5	X6	Y6	Z6	X7	Y7	Z7	X8	Y8	Z8	X9	Y9	Z9	X10	Y10	Z10	X11	Y11	Z11	X12	Y12	Z12	X13	Y13	Z13	X14	Y14	Z14	X15	Y15	Z15	X16	Y16	Z16	X17	Y17	Z17	X18	Y18	Z18	X19	Y19	Z19	X20	Y20	Z20	X21	Y21	Z21
0	0.0	0.028806699752807616	-0.029992500305175782	0.9365040283203125	0.021419500350952147	-0.018864099502563476	0.9612210083007813	0.030120800018310547	-0.002457880020141601	0.9865009765625	0.012399999618530274	0.02264039993286133	0.9993259887695313	0.03887220001220703	-0.12123999786376953	0.9751179809570313	0.036051799774169925	-0.09935230255126953	0.9833770141601562	0.03145840072631836	-0.07884220123291015	0.9917540283203125	0.019372499465942383	-0.043354000091552734	1.0098699951171874	0.02134670066833496	-0.024500600814819334	0.980208984375	0.024101499557495118	-0.04082889938354492	0.9663930053710937	0.013212800025939941	-0.06579840087890625	0.9719219970703125	-0.007588250160217285	-0.04603279876708984	1.0094500122070313	0.005459660053253173	-0.019092100143432617	0.9643560180664063	0.0060362801551818845	-0.035311199188232424	0.9525399780273438	-0.00636890983581543	-0.058530399322509766	0.9588800048828126	-0.022957199096679686	-0.037218101501464845	0.9914600219726563	-0.04638560104370117	-0.09627010345458985	0.9590360107421875	-0.042128101348876956	-0.07446540069580078	0.9616959838867187	-0.03895719909667969	-0.05575230026245117	0.9661710205078125	-0.033632801055908206	-0.025666000366210938	0.973552001953125	-0.0175039005279541	0.031226699829101562	1.027300048828125
1	0.03333333333333333	0.028275299072265624	-0.0300447998046875	0.936447998046875	0.02130139923095703	-0.018958900451660158	0.96127197265625	0.030112300872802734	-0.0025121099948883048	0.9865819702148437	0.012382599830627441	0.022561599731445312	0.9995910034179688	0.03851060104370117	-0.12125900268554687	0.9744660034179687	0.03572510147094726	-0.09937259674072266	0.982968017578125	0.031236299514770506	-0.07883640289306641	0.9915599975585937	0.01961140060424805	-0.043463001251220705	1.0095599975585938	0.021202299118041994	-0.024506999969482423	0.9805830078125	0.023973499298095703	-0.04090250015258789	0.9662769775390625	0.013034500122070313	-0.06576270294189453	0.9717620239257813	-0.007795639991760254	-0.046110801696777344	1.0094400024414063	0.005198619842529297	-0.019181100845336915	0.9641370239257813	0.005885069847106934	-0.03520840072631836	0.9525189819335937	-0.0064268798828125	-0.058446300506591796	0.9588049926757812	-0.023022100448608397	-0.03715250015258789	0.9915339965820312	-0.046442699432373044	-0.09615740203857422	0.9589569702148437	-0.0421796989440918	-0.07438410186767579	0.9616339721679688	-0.03899779891967774	-0.05569350051879883	0.9661859741210937	-0.0337666015625	-0.025489999771118165	0.9736890258789063	-0.017417600631713867	0.03106060028076172	1.0275400390625
2	0.06666666666666667	0.027940000534057617	-0.029613500595092775	0.9360050048828125	0.02111090087890625	-0.01863089942932129	0.9609290161132813	0.030031700134277344	-0.002403959989547729	0.98660302734375	0.012322299957275391	0.02260059928894043	0.9995280151367187	0.037965301513671876	-0.12119200134277344	0.9735859985351563	0.035285999298095706	-0.09927239990234375	0.9821680297851563	0.030805700302124022	-0.07884500122070312	0.9908720092773438	0.0193351993560791	-0.04367070007324219	1.0090900268554688	0.02121689987182617	-0.024279199600219726	0.9794110107421875	0.023724599838256834	-0.04057149887084961	0.9659030151367187	0.012623499870300293	-0.06558059692382813	0.9712160034179688	-0.00794605016708374	-0.04610869979858399	1.0091400146484375	0.00505118989944458	-0.018773399353027343	0.9641209716796875	0.005634160041809082	-0.034872398376464844	0.9521110229492188	-0.006753270149230957	-0.058117698669433594	0.9582860107421876	-0.02328529930114746	-0.03702339935302734	0.9912219848632813	-0.04672800064086914	-0.09574970245361328	0.9584010009765624	-0.042433101654052736	-0.07398770141601563	0.96114599609375	-0.03915769958496094	-0.05532040023803711	0.96572900390625	-0.03397600173950195	-0.02516990089416504	0.9734099731445313	-0.01740679931640625	0.031038299560546875	1.0274000244140624
3	0.1	0.027284299850463867	-0.029251100540161133	0.9355380249023437	0.020653600692749022	-0.018441299438476562	0.96064599609375	0.029675100326538088	-0.002277169942855835	0.98627099609375	0.011875300407409669	0.02275600051879883	0.9991900024414062	0.03713190078735352	-0.12105300140380859	0.9727059936523438	0.03449029922485351	-0.09916320037841797	0.9815700073242187	0.030097600936889648	-0.07874639892578125	0.9903400268554687	0.01878630065917969	-0.0436260986328125	1.0085399780273439	0.020523000717163085	-0.024191699981689452	0.9801810302734375	0.023144100189208986	-0.04063840103149414	0.96535498046875	0.0120068998336792	-0.06534880065917968	0.9706309814453125	-0.008503910064697265	-0.045908100128173826	1.0089199829101563	0.0045693998336791995	-0.018487899780273438	0.9636380004882813	0.0051671299934387205	-0.03467770004272461	0.9516170043945312	-0.007300610065460205	-0.057775501251220704	0.9576519775390625	-0.023702199935913087	-0.03667890167236328	0.990823974609375	-0.04733440017700195	-0.09521109771728516	0.9576859741210938	-0.04295800018310547	-0.07347329711914062	0.9604949951171875	-0.039652198791503904	-0.0548661994934082	0.9651199951171875	-0.034412899017333985	-0.024697500228881834	0.9730170288085938	-0.01770669937133789	0.031180700302124022	1.0273499755859374
